<?xml version="1.0" encoding="UTF-8" standalone="no"?>
<!-- Created with Inkscape (http://www.inkscape.org/) -->

<svg
   width="600"
   height="1000"
   viewBox="0 0 158.74999 264.58333"
   version="1.1"
   id="svg5"
   xml:space="preserve"
   inkscape:version="1.2.2 (732a01da63, 2022-12-09)"
   sodipodi:docname="blueprint_05.svg"
   xmlns:inkscape="http://www.inkscape.org/namespaces/inkscape"
   xmlns:sodipodi="http://sodipodi.sourceforge.net/DTD/sodipodi-0.dtd"
   xmlns="http://www.w3.org/2000/svg"
   xmlns:svg="http://www.w3.org/2000/svg"><sodipodi:namedview
     id="namedview7"
     pagecolor="#ffffff"
     bordercolor="#000000"
     borderopacity="0.25"
     inkscape:showpageshadow="2"
     inkscape:pageopacity="0.0"
     inkscape:pagecheckerboard="0"
     inkscape:deskcolor="#d1d1d1"
     inkscape:document-units="mm"
     showgrid="false"
     inkscape:zoom="0.50646226"
     inkscape:cx="578.52287"
     inkscape:cy="660.46382"
     inkscape:window-width="1920"
     inkscape:window-height="991"
     inkscape:window-x="-9"
     inkscape:window-y="-9"
     inkscape:window-maximized="1"
     inkscape:current-layer="layer1" /><defs
     id="defs2" /><g
     inkscape:label="Layer 1"
     inkscape:groupmode="layer"
     id="layer1"><g
       id="g569"
       transform="matrix(0,0.87862163,-0.87862163,0,251.88881,-250.40776)"><g
         id="g420"
         transform="rotate(-30,395.44328,150.62784)"><g
           id="g557"
           transform="translate(8.3343506,4.6753674)"><g
             id="g551"><path
               style="fill:#006bde"
               d="m 394.405,136.242 c -0.581,0 -1.053,-0.471 -1.053,-1.053 v -4.644 c 0,-0.582 0.472,-1.053 1.053,-1.053 0.582,0 1.053,0.471 1.053,1.053 v 4.644 c 0,0.581 -0.471,1.053 -1.053,1.053 z"
               id="path549" /></g><g
             id="g555"><path
               style="fill:#006bde"
               d="m 394.405,144.369 c -0.581,0 -1.053,-0.471 -1.053,-1.053 v -4.644 c 0,-0.582 0.472,-1.053 1.053,-1.053 0.582,0 1.053,0.471 1.053,1.053 v 4.644 c 0,0.582 -0.471,1.053 -1.053,1.053 z"
               id="path553" /></g></g><g
           id="g567"
           transform="translate(8.3343506,4.6753674)"><g
             id="g561"><path
               style="fill:#006bde"
               d="m 400.924,137.983 h -4.172 c -0.582,0 -1.053,-0.471 -1.053,-1.053 0,-0.582 0.472,-1.053 1.053,-1.053 h 4.172 c 0.581,0 1.053,0.471 1.053,1.053 0,0.582 -0.471,1.053 -1.053,1.053 z"
               id="path559" /></g><g
             id="g565"><path
               style="fill:#006bde"
               d="m 392.058,137.983 h -4.172 c -0.581,0 -1.053,-0.471 -1.053,-1.053 0,-0.582 0.472,-1.053 1.053,-1.053 h 4.172 c 0.582,0 1.053,0.471 1.053,1.053 0,0.582 -0.471,1.053 -1.053,1.053 z"
               id="path563" /></g></g></g></g><g
       id="g591"
       transform="matrix(0.35489476,0.61469573,-0.61469573,0.35489476,65.657761,-207.09591)"><g
         id="g579"><g
           id="g573"><path
             style="fill:#1c31b5"
             d="m 358.943,108.107 c -0.582,0 -1.053,-0.472 -1.053,-1.053 v -4.644 c 0,-0.582 0.472,-1.053 1.053,-1.053 0.581,0 1.053,0.471 1.053,1.053 v 4.644 c 0,0.581 -0.471,1.053 -1.053,1.053 z"
             id="path571" /></g><g
           id="g577"><path
             style="fill:#1c31b5"
             d="m 358.943,116.234 c -0.582,0 -1.053,-0.471 -1.053,-1.053 v -4.644 c 0,-0.582 0.472,-1.053 1.053,-1.053 0.581,0 1.053,0.471 1.053,1.053 v 4.644 c 0,0.582 -0.471,1.053 -1.053,1.053 z"
             id="path575" /></g></g><g
         id="g589"><g
           id="g583"><path
             style="fill:#1c31b5"
             d="m 365.462,109.849 h -4.172 c -0.581,0 -1.053,-0.472 -1.053,-1.053 0,-0.582 0.472,-1.053 1.053,-1.053 h 4.172 c 0.582,0 1.053,0.471 1.053,1.053 0,0.581 -0.471,1.053 -1.053,1.053 z"
             id="path581" /></g><g
           id="g587"><path
             style="fill:#1c31b5"
             d="m 356.596,109.849 h -4.172 c -0.582,0 -1.053,-0.472 -1.053,-1.053 0,-0.582 0.472,-1.053 1.053,-1.053 h 4.172 c 0.582,0 1.053,0.471 1.053,1.053 10e-4,0.581 -0.471,1.053 -1.053,1.053 z"
             id="path585" /></g></g></g><path
       style="fill:#006bde;stroke-width:1.34625"
       d="m 70.720728,36.55507 c 7e-6,-4.98382 4.05491,-9.03873 9.038731,-9.03873 4.983814,10e-6 9.038717,4.05492 9.038717,9.03873 0,4.98382 -4.054903,9.03872 -9.038724,9.03872 -4.983821,0 -9.038724,-4.0549 -9.038724,-9.03872 z m 15.240894,0 c 7e-6,-3.42082 -2.782694,-6.20352 -6.203511,-6.20352 -3.420824,0 -6.202184,2.7827 -6.202177,6.20352 0,3.42083 2.782694,6.20218 6.202177,6.20218 3.420817,10e-4 6.203518,-2.78136 6.203511,-6.20218 z"
       id="path541" /><g
       id="g444"
       transform="matrix(0,0.53919742,-0.53919742,0,112.47188,-16.140553)"><g
         id="g442"
         transform="rotate(-30,395.44328,150.62784)"><g
           id="g430"
           transform="translate(8.3343506,4.6753674)"><g
             id="g424"><path
               style="fill:#006bde"
               d="m 394.405,136.242 c -0.581,0 -1.053,-0.471 -1.053,-1.053 v -4.644 c 0,-0.582 0.472,-1.053 1.053,-1.053 0.582,0 1.053,0.471 1.053,1.053 v 4.644 c 0,0.581 -0.471,1.053 -1.053,1.053 z"
               id="path422" /></g><g
             id="g428"><path
               style="fill:#006bde"
               d="m 394.405,144.369 c -0.581,0 -1.053,-0.471 -1.053,-1.053 v -4.644 c 0,-0.582 0.472,-1.053 1.053,-1.053 0.582,0 1.053,0.471 1.053,1.053 v 4.644 c 0,0.582 -0.471,1.053 -1.053,1.053 z"
               id="path426" /></g></g><g
           id="g440"
           transform="translate(8.3343506,4.6753674)"><g
             id="g434"><path
               style="fill:#006bde"
               d="m 400.924,137.983 h -4.172 c -0.582,0 -1.053,-0.471 -1.053,-1.053 0,-0.582 0.472,-1.053 1.053,-1.053 h 4.172 c 0.581,0 1.053,0.471 1.053,1.053 0,0.582 -0.471,1.053 -1.053,1.053 z"
               id="path432" /></g><g
             id="g438"><path
               style="fill:#006bde"
               d="m 392.058,137.983 h -4.172 c -0.581,0 -1.053,-0.471 -1.053,-1.053 0,-0.582 0.472,-1.053 1.053,-1.053 h 4.172 c 0.582,0 1.053,0.471 1.053,1.053 0,0.582 -0.471,1.053 -1.053,1.053 z"
               id="path436" /></g></g></g></g><g
       id="g387"
       transform="matrix(0.35489476,0.61469573,-0.61469573,0.35489476,-42.449515,-129.70185)"><g
         id="g375"><g
           id="g369"><path
             style="fill:#1c31b5"
             d="m 358.943,108.107 c -0.582,0 -1.053,-0.472 -1.053,-1.053 v -4.644 c 0,-0.582 0.472,-1.053 1.053,-1.053 0.581,0 1.053,0.471 1.053,1.053 v 4.644 c 0,0.581 -0.471,1.053 -1.053,1.053 z"
             id="path367" /></g><g
           id="g373"><path
             style="fill:#1c31b5"
             d="m 358.943,116.234 c -0.582,0 -1.053,-0.471 -1.053,-1.053 v -4.644 c 0,-0.582 0.472,-1.053 1.053,-1.053 0.581,0 1.053,0.471 1.053,1.053 v 4.644 c 0,0.582 -0.471,1.053 -1.053,1.053 z"
             id="path371" /></g></g><g
         id="g385"><g
           id="g379"><path
             style="fill:#1c31b5"
             d="m 365.462,109.849 h -4.172 c -0.581,0 -1.053,-0.472 -1.053,-1.053 0,-0.582 0.472,-1.053 1.053,-1.053 h 4.172 c 0.582,0 1.053,0.471 1.053,1.053 0,0.581 -0.471,1.053 -1.053,1.053 z"
             id="path377" /></g><g
           id="g383"><path
             style="fill:#1c31b5"
             d="m 356.596,109.849 h -4.172 c -0.582,0 -1.053,-0.472 -1.053,-1.053 0,-0.582 0.472,-1.053 1.053,-1.053 h 4.172 c 0.582,0 1.053,0.471 1.053,1.053 10e-4,0.581 -0.471,1.053 -1.053,1.053 z"
             id="path381" /></g></g></g><path
       style="fill:#009cf8;stroke-width:0.780137"
       d="m 102.70632,134.04271 c 0,-2.88806 2.34977,-5.23783 5.23784,-5.23782 2.88805,0 5.23783,2.34976 5.23782,5.23782 0,2.88807 -2.34977,5.23784 -5.23782,5.23784 -2.88807,0 -5.23784,-2.34977 -5.23784,-5.23784 z m 8.83192,0 c 0,-1.98232 -1.61255,-3.59486 -3.59487,-3.59486 -1.98233,0 -3.59486,1.61254 -3.59486,3.59486 -1e-5,1.98154 1.61254,3.59409 3.59486,3.59409 1.98311,5.9e-4 3.59487,-1.61176 3.59487,-3.59409 z"
       id="path389" /><g
       id="g521"
       transform="matrix(0,0.55616864,-0.55616864,0,105.34744,-202.72383)"><g
         id="g519"
         transform="rotate(-30,395.44328,150.62784)"><g
           id="g507"
           transform="translate(8.3343506,4.6753674)"><g
             id="g501"><path
               style="fill:#006bde"
               d="m 394.405,136.242 c -0.581,0 -1.053,-0.471 -1.053,-1.053 v -4.644 c 0,-0.582 0.472,-1.053 1.053,-1.053 0.582,0 1.053,0.471 1.053,1.053 v 4.644 c 0,0.581 -0.471,1.053 -1.053,1.053 z"
               id="path499" /></g><g
             id="g505"><path
               style="fill:#006bde"
               d="m 394.405,144.369 c -0.581,0 -1.053,-0.471 -1.053,-1.053 v -4.644 c 0,-0.582 0.472,-1.053 1.053,-1.053 0.582,0 1.053,0.471 1.053,1.053 v 4.644 c 0,0.582 -0.471,1.053 -1.053,1.053 z"
               id="path503" /></g></g><g
           id="g517"
           transform="translate(8.3343506,4.6753674)"><g
             id="g511"><path
               style="fill:#006bde"
               d="m 400.924,137.983 h -4.172 c -0.582,0 -1.053,-0.471 -1.053,-1.053 0,-0.582 0.472,-1.053 1.053,-1.053 h 4.172 c 0.581,0 1.053,0.471 1.053,1.053 0,0.582 -0.471,1.053 -1.053,1.053 z"
               id="path509" /></g><g
             id="g515"><path
               style="fill:#006bde"
               d="m 392.058,137.983 h -4.172 c -0.581,0 -1.053,-0.471 -1.053,-1.053 0,-0.582 0.472,-1.053 1.053,-1.053 h 4.172 c 0.582,0 1.053,0.471 1.053,1.053 0,0.582 -0.471,1.053 -1.053,1.053 z"
               id="path513" /></g></g></g></g><g
       id="g1163"
       transform="matrix(-0.45359478,-0.75248106,0.75248106,-0.45359478,145.2652,605.62268)"><g
         id="g1161"
         transform="rotate(-30,395.44328,150.62784)"><g
           id="g1149"
           transform="translate(8.3343506,4.6753674)"><g
             id="g1143"><path
               style="fill:#006bde"
               d="m 394.405,136.242 c -0.581,0 -1.053,-0.471 -1.053,-1.053 v -4.644 c 0,-0.582 0.472,-1.053 1.053,-1.053 0.582,0 1.053,0.471 1.053,1.053 v 4.644 c 0,0.581 -0.471,1.053 -1.053,1.053 z"
               id="path1141" /></g><g
             id="g1147"><path
               style="fill:#006bde"
               d="m 394.405,144.369 c -0.581,0 -1.053,-0.471 -1.053,-1.053 v -4.644 c 0,-0.582 0.472,-1.053 1.053,-1.053 0.582,0 1.053,0.471 1.053,1.053 v 4.644 c 0,0.582 -0.471,1.053 -1.053,1.053 z"
               id="path1145" /></g></g><g
           id="g1159"
           transform="translate(8.3343506,4.6753674)"><g
             id="g1153"><path
               style="fill:#006bde"
               d="m 400.924,137.983 h -4.172 c -0.582,0 -1.053,-0.471 -1.053,-1.053 0,-0.582 0.472,-1.053 1.053,-1.053 h 4.172 c 0.581,0 1.053,0.471 1.053,1.053 0,0.582 -0.471,1.053 -1.053,1.053 z"
               id="path1151" /></g><g
             id="g1157"><path
               style="fill:#006bde"
               d="m 392.058,137.983 h -4.172 c -0.581,0 -1.053,-0.471 -1.053,-1.053 0,-0.582 0.472,-1.053 1.053,-1.053 h 4.172 c 0.582,0 1.053,0.471 1.053,1.053 0,0.582 -0.471,1.053 -1.053,1.053 z"
               id="path1155" /></g></g></g></g><g
       id="g1185"
       transform="matrix(-0.62128491,-0.34322907,0.34322907,-0.62128491,315.26678,420.81124)"><g
         id="g1173"><g
           id="g1167"><path
             style="fill:#1c31b5"
             d="m 358.943,108.107 c -0.582,0 -1.053,-0.472 -1.053,-1.053 v -4.644 c 0,-0.582 0.472,-1.053 1.053,-1.053 0.581,0 1.053,0.471 1.053,1.053 v 4.644 c 0,0.581 -0.471,1.053 -1.053,1.053 z"
             id="path1165" /></g><g
           id="g1171"><path
             style="fill:#1c31b5"
             d="m 358.943,116.234 c -0.582,0 -1.053,-0.471 -1.053,-1.053 v -4.644 c 0,-0.582 0.472,-1.053 1.053,-1.053 0.581,0 1.053,0.471 1.053,1.053 v 4.644 c 0,0.582 -0.471,1.053 -1.053,1.053 z"
             id="path1169" /></g></g><g
         id="g1183"><g
           id="g1177"><path
             style="fill:#1c31b5"
             d="m 365.462,109.849 h -4.172 c -0.581,0 -1.053,-0.472 -1.053,-1.053 0,-0.582 0.472,-1.053 1.053,-1.053 h 4.172 c 0.582,0 1.053,0.471 1.053,1.053 0,0.581 -0.471,1.053 -1.053,1.053 z"
             id="path1175" /></g><g
           id="g1181"><path
             style="fill:#1c31b5"
             d="m 356.596,109.849 h -4.172 c -0.582,0 -1.053,-0.472 -1.053,-1.053 0,-0.582 0.472,-1.053 1.053,-1.053 h 4.172 c 0.582,0 1.053,0.471 1.053,1.053 10e-4,0.581 -0.471,1.053 -1.053,1.053 z"
             id="path1179" /></g></g></g><path
       style="fill:#009cf8;stroke-width:0.260439"
       d="m 47.450551,75.400837 c 0,-0.964145 0.78444,-1.748586 1.74859,-1.748586 0.96414,10e-7 1.74858,0.784441 1.74858,1.748586 0,0.964144 -0.78444,1.748585 -1.74858,1.748585 -0.96415,0 -1.74859,-0.784442 -1.74859,-1.748585 z m 2.94843,0 c 0,-0.661774 -0.53833,-1.200101 -1.2001,-1.200101 -0.66178,0 -1.20011,0.538327 -1.20011,1.200101 0,0.661513 0.53833,1.199841 1.20011,1.199841 0.66203,2.33e-4 1.2001,-0.538066 1.2001,-1.199841 z"
       id="path1276" /><g
       id="g1480"
       transform="matrix(0,0.40249099,-0.40249099,0,120.32557,-38.223218)"><g
         id="g1478"
         transform="rotate(-30,395.44328,150.62784)"><g
           id="g1466"
           transform="translate(8.3343506,4.6753674)"><g
             id="g1460"><path
               style="fill:#006bde"
               d="m 394.405,136.242 c -0.581,0 -1.053,-0.471 -1.053,-1.053 v -4.644 c 0,-0.582 0.472,-1.053 1.053,-1.053 0.582,0 1.053,0.471 1.053,1.053 v 4.644 c 0,0.581 -0.471,1.053 -1.053,1.053 z"
               id="path1458" /></g><g
             id="g1464"><path
               style="fill:#006bde"
               d="m 394.405,144.369 c -0.581,0 -1.053,-0.471 -1.053,-1.053 v -4.644 c 0,-0.582 0.472,-1.053 1.053,-1.053 0.582,0 1.053,0.471 1.053,1.053 v 4.644 c 0,0.582 -0.471,1.053 -1.053,1.053 z"
               id="path1462" /></g></g><g
           id="g1476"
           transform="translate(8.3343506,4.6753674)"><g
             id="g1470"><path
               style="fill:#006bde"
               d="m 400.924,137.983 h -4.172 c -0.582,0 -1.053,-0.471 -1.053,-1.053 0,-0.582 0.472,-1.053 1.053,-1.053 h 4.172 c 0.581,0 1.053,0.471 1.053,1.053 0,0.582 -0.471,1.053 -1.053,1.053 z"
               id="path1468" /></g><g
             id="g1474"><path
               style="fill:#006bde"
               d="m 392.058,137.983 h -4.172 c -0.581,0 -1.053,-0.471 -1.053,-1.053 0,-0.582 0.472,-1.053 1.053,-1.053 h 4.172 c 0.582,0 1.053,0.471 1.053,1.053 0,0.582 -0.471,1.053 -1.053,1.053 z"
               id="path1472" /></g></g></g></g><path
       style="fill:#006bde;stroke-width:0.451438"
       d="m 120.87254,175.77859 c 0,-1.67122 1.35973,-3.03096 3.03095,-3.03096 1.67123,1e-5 3.03096,1.35974 3.03096,3.03096 0,1.67123 -1.35973,3.03096 -3.03096,3.03096 -1.67122,0 -3.03095,-1.35973 -3.03095,-3.03096 z m 5.11073,0 c 0,-1.1471 -0.93312,-2.08023 -2.08023,-2.08023 -1.1471,0 -2.07978,0.93313 -2.07977,2.08023 0,1.14711 0.93312,2.07978 2.07977,2.07978 1.14711,3.4e-4 2.08023,-0.93267 2.08023,-2.07978 z"
       id="path1482" /><path
       style="fill:#006bde;stroke-width:1.34625"
       d="m -2.4173303,229.32609 c 7e-6,-4.98382 4.05491,-9.03873 9.038731,-9.03873 4.9838163,1e-5 9.0387163,4.05492 9.0387163,9.03873 0,4.98382 -4.0549,9.03872 -9.0387233,9.03872 -4.983821,0 -9.038724,-4.0549 -9.038724,-9.03872 z m 15.2408973,0 c 0,-3.42082 -2.7827,-6.20352 -6.2035143,-6.20352 -3.420824,0 -6.20218404,2.7827 -6.20217704,6.20352 0,3.42083 2.78269404,6.20218 6.20217704,6.20218 3.4208143,0.001 6.2035143,-2.78136 6.2035143,-6.20218 z"
       id="path1690" /></g></svg>
