<?xml version="1.0" encoding="UTF-8" standalone="no"?>
<!-- Created with Inkscape (http://www.inkscape.org/) -->

<svg
   width="1920"
   height="1080"
   viewBox="0 0 507.99999 285.75"
   version="1.1"
   id="svg5"
   xml:space="preserve"
   inkscape:version="1.2.2 (732a01da63, 2022-12-09)"
   sodipodi:docname="blueprint_04.svg"
   xmlns:inkscape="http://www.inkscape.org/namespaces/inkscape"
   xmlns:sodipodi="http://sodipodi.sourceforge.net/DTD/sodipodi-0.dtd"
   xmlns="http://www.w3.org/2000/svg"
   xmlns:svg="http://www.w3.org/2000/svg"><sodipodi:namedview
     id="namedview7"
     pagecolor="#ffffff"
     bordercolor="#000000"
     borderopacity="0.25"
     inkscape:showpageshadow="2"
     inkscape:pageopacity="0.0"
     inkscape:pagecheckerboard="0"
     inkscape:deskcolor="#d1d1d1"
     inkscape:document-units="mm"
     showgrid="false"
     inkscape:zoom="0.3581229"
     inkscape:cx="1178.3664"
     inkscape:cy="219.19849"
     inkscape:window-width="1920"
     inkscape:window-height="991"
     inkscape:window-x="-9"
     inkscape:window-y="-9"
     inkscape:window-maximized="1"
     inkscape:current-layer="layer1" /><defs
     id="defs2" /><g
     inkscape:label="Layer 1"
     inkscape:groupmode="layer"
     id="layer1"><g
       id="g591"
       transform="matrix(2.032391,-1.1734015,1.1734015,2.032391,-808.66106,334.82125)"><g
         id="g579"><g
           id="g573"><path
             style="fill:#1c31b5"
             d="m 358.943,108.107 c -0.582,0 -1.053,-0.472 -1.053,-1.053 v -4.644 c 0,-0.582 0.472,-1.053 1.053,-1.053 0.581,0 1.053,0.471 1.053,1.053 v 4.644 c 0,0.581 -0.471,1.053 -1.053,1.053 z"
             id="path571" /></g><g
           id="g577"><path
             style="fill:#1c31b5"
             d="m 358.943,116.234 c -0.582,0 -1.053,-0.471 -1.053,-1.053 v -4.644 c 0,-0.582 0.472,-1.053 1.053,-1.053 0.581,0 1.053,0.471 1.053,1.053 v 4.644 c 0,0.582 -0.471,1.053 -1.053,1.053 z"
             id="path575" /></g></g><g
         id="g589"><g
           id="g583"><path
             style="fill:#1c31b5"
             d="m 365.462,109.849 h -4.172 c -0.581,0 -1.053,-0.472 -1.053,-1.053 0,-0.582 0.472,-1.053 1.053,-1.053 h 4.172 c 0.582,0 1.053,0.471 1.053,1.053 0,0.581 -0.471,1.053 -1.053,1.053 z"
             id="path581" /></g><g
           id="g587"><path
             style="fill:#1c31b5"
             d="m 356.596,109.849 h -4.172 c -0.582,0 -1.053,-0.472 -1.053,-1.053 0,-0.582 0.472,-1.053 1.053,-1.053 h 4.172 c 0.582,0 1.053,0.471 1.053,1.053 10e-4,0.581 -0.471,1.053 -1.053,1.053 z"
             id="path585" /></g></g></g><path
       style="fill:#006bde;stroke-width:3.72895"
       d="m 9.5126696,122.07588 c -13.80455,0 -25.0361326,-11.23158 -25.0361326,-25.036127 0,-13.80455 11.2315826,-25.03613 25.0361326,-25.03613 13.8045504,0 25.0361304,11.23158 25.0361304,25.03613 0,13.804547 -11.23158,25.036127 -25.0361304,25.036127 z m 0,-42.215367 c -9.47524996,0 -17.18297,7.70772 -17.18297,17.18297 0,9.475247 7.70772004,17.179247 17.18297,17.179247 9.4752504,0 17.1792504,-7.70773 17.1792504,-17.179247 0.004,-9.47525 -7.704,-17.18297 -17.1792504,-17.18297 z"
       id="path541" /><g
       id="g444"
       transform="matrix(1.7827681,0,0,1.7827681,-256.66653,-192.21607)"><g
         id="g442"
         transform="rotate(-30,395.44328,150.62784)"><g
           id="g430"
           transform="translate(8.3343506,4.6753674)"><g
             id="g424"><path
               style="fill:#006bde"
               d="m 394.405,136.242 c -0.581,0 -1.053,-0.471 -1.053,-1.053 v -4.644 c 0,-0.582 0.472,-1.053 1.053,-1.053 0.582,0 1.053,0.471 1.053,1.053 v 4.644 c 0,0.581 -0.471,1.053 -1.053,1.053 z"
               id="path422" /></g><g
             id="g428"><path
               style="fill:#006bde"
               d="m 394.405,144.369 c -0.581,0 -1.053,-0.471 -1.053,-1.053 v -4.644 c 0,-0.582 0.472,-1.053 1.053,-1.053 0.582,0 1.053,0.471 1.053,1.053 v 4.644 c 0,0.582 -0.471,1.053 -1.053,1.053 z"
               id="path426" /></g></g><g
           id="g440"
           transform="translate(8.3343506,4.6753674)"><g
             id="g434"><path
               style="fill:#006bde"
               d="m 400.924,137.983 h -4.172 c -0.582,0 -1.053,-0.471 -1.053,-1.053 0,-0.582 0.472,-1.053 1.053,-1.053 h 4.172 c 0.581,0 1.053,0.471 1.053,1.053 0,0.582 -0.471,1.053 -1.053,1.053 z"
               id="path432" /></g><g
             id="g438"><path
               style="fill:#006bde"
               d="m 392.058,137.983 h -4.172 c -0.581,0 -1.053,-0.471 -1.053,-1.053 0,-0.582 0.472,-1.053 1.053,-1.053 h 4.172 c 0.582,0 1.053,0.471 1.053,1.053 0,0.582 -0.471,1.053 -1.053,1.053 z"
               id="path436" /></g></g></g></g><path
       style="opacity:0.353086;fill:#009cf8;stroke-width:3.09621"
       d="m 468.56235,194.40181 c -11.4622,0 -20.78799,-9.32581 -20.78799,-20.788 0,-11.46219 9.32579,-20.78799 20.78799,-20.78799 11.46219,0 20.78799,9.3258 20.78799,20.78799 0,11.46219 -9.3258,20.788 -20.78799,20.788 z m 0,-35.05226 c -7.86749,0 -14.26737,6.39987 -14.26737,14.26736 0,7.86748 6.39988,14.26737 14.26737,14.26737 7.86438,0 14.26427,-6.39989 14.26427,-14.26737 0.003,-7.87058 -6.39678,-14.26736 -14.26427,-14.26736 z"
       id="path446" /><path
       style="fill:#009cf8;stroke-width:2.16088"
       d="m 118.73775,215.08837 c -7.99958,0 -14.50815,-6.50857 -14.50815,-14.50815 0,-7.99957 6.50857,-14.50814 14.50815,-14.50814 7.99957,0 14.50814,6.50857 14.50814,14.50814 0,7.99958 -6.50857,14.50815 -14.50814,14.50815 z m 0,-24.46332 c -5.4908,0 -9.95734,4.46654 -9.95734,9.95733 0,5.4908 4.46654,9.95734 9.95734,9.95734 5.48863,0 9.95516,-4.46654 9.95516,-9.95734 0.002,-5.49295 -4.46437,-9.95733 -9.95516,-9.95733 z"
       id="path389" /><g
       id="g521"
       transform="matrix(1.8388807,0,0,1.8388807,-386.70657,-75.536243)"><g
         id="g519"
         transform="rotate(-30,395.44328,150.62784)"><g
           id="g507"
           transform="translate(8.3343506,4.6753674)"><g
             id="g501"><path
               style="fill:#006bde"
               d="m 394.405,136.242 c -0.581,0 -1.053,-0.471 -1.053,-1.053 v -4.644 c 0,-0.582 0.472,-1.053 1.053,-1.053 0.582,0 1.053,0.471 1.053,1.053 v 4.644 c 0,0.581 -0.471,1.053 -1.053,1.053 z"
               id="path499" /></g><g
             id="g505"><path
               style="fill:#006bde"
               d="m 394.405,144.369 c -0.581,0 -1.053,-0.471 -1.053,-1.053 v -4.644 c 0,-0.582 0.472,-1.053 1.053,-1.053 0.582,0 1.053,0.471 1.053,1.053 v 4.644 c 0,0.582 -0.471,1.053 -1.053,1.053 z"
               id="path503" /></g></g><g
           id="g517"
           transform="translate(8.3343506,4.6753674)"><g
             id="g511"><path
               style="fill:#006bde"
               d="m 400.924,137.983 h -4.172 c -0.582,0 -1.053,-0.471 -1.053,-1.053 0,-0.582 0.472,-1.053 1.053,-1.053 h 4.172 c 0.581,0 1.053,0.471 1.053,1.053 0,0.582 -0.471,1.053 -1.053,1.053 z"
               id="path509" /></g><g
             id="g515"><path
               style="fill:#006bde"
               d="m 392.058,137.983 h -4.172 c -0.581,0 -1.053,-0.471 -1.053,-1.053 0,-0.582 0.472,-1.053 1.053,-1.053 h 4.172 c 0.582,0 1.053,0.471 1.053,1.053 0,0.582 -0.471,1.053 -1.053,1.053 z"
               id="path513" /></g></g></g></g></g></svg>
