<?xml version="1.0" encoding="UTF-8" standalone="no"?>
<!-- Created with Inkscape (http://www.inkscape.org/) -->

<svg
   width="1920"
   height="1080"
   viewBox="0 0 507.99999 285.75"
   version="1.1"
   id="svg5"
   xml:space="preserve"
   inkscape:version="1.2.2 (732a01da63, 2022-12-09)"
   sodipodi:docname="blueprint_01.svg"
   xmlns:inkscape="http://www.inkscape.org/namespaces/inkscape"
   xmlns:sodipodi="http://sodipodi.sourceforge.net/DTD/sodipodi-0.dtd"
   xmlns="http://www.w3.org/2000/svg"
   xmlns:svg="http://www.w3.org/2000/svg"><sodipodi:namedview
     id="namedview7"
     pagecolor="#ffffff"
     bordercolor="#000000"
     borderopacity="0.25"
     inkscape:showpageshadow="2"
     inkscape:pageopacity="0.0"
     inkscape:pagecheckerboard="0"
     inkscape:deskcolor="#d1d1d1"
     inkscape:document-units="mm"
     showgrid="false"
     inkscape:zoom="0.3581229"
     inkscape:cx="925.65988"
     inkscape:cy="213.61382"
     inkscape:window-width="958"
     inkscape:window-height="981"
     inkscape:window-x="944"
     inkscape:window-y="0"
     inkscape:window-maximized="0"
     inkscape:current-layer="layer1" /><defs
     id="defs2" /><g
     inkscape:label="Layer 1"
     inkscape:groupmode="layer"
     id="layer1"><path
       style="fill:#009cf8;stroke-width:4.03155"
       d="m 15.304907,140.46897 c -14.92480826,0 -27.067843,-12.14304 -27.067843,-27.06785 0,-14.924809 12.14303474,-27.067843 27.067843,-27.067843 14.924808,0 27.067842,12.143034 27.067842,27.067843 0,14.92481 -12.143034,27.06785 -27.067842,27.06785 z m 0,-45.641216 c -10.2441763,0 -18.5773953,8.333216 -18.5773953,18.577396 0,10.24418 8.333219,18.5774 18.5773953,18.5774 10.240141,0 18.57336,-8.33322 18.57336,-18.5774 0.0039,-10.24821 -8.329184,-18.577396 -18.57336,-18.577396 z"
       id="path545" /><g
       id="g569"
       transform="matrix(2.9050188,0,0,2.9050188,-975.9694,-341.00763)"><g
         id="g420"
         transform="rotate(-30,395.44328,150.62784)"><g
           id="g557"
           transform="translate(8.3343506,4.6753674)"><g
             id="g551"><path
               style="fill:#006bde"
               d="m 394.405,136.242 c -0.581,0 -1.053,-0.471 -1.053,-1.053 v -4.644 c 0,-0.582 0.472,-1.053 1.053,-1.053 0.582,0 1.053,0.471 1.053,1.053 v 4.644 c 0,0.581 -0.471,1.053 -1.053,1.053 z"
               id="path549" /></g><g
             id="g555"><path
               style="fill:#006bde"
               d="m 394.405,144.369 c -0.581,0 -1.053,-0.471 -1.053,-1.053 v -4.644 c 0,-0.582 0.472,-1.053 1.053,-1.053 0.582,0 1.053,0.471 1.053,1.053 v 4.644 c 0,0.582 -0.471,1.053 -1.053,1.053 z"
               id="path553" /></g></g><g
           id="g567"
           transform="translate(8.3343506,4.6753674)"><g
             id="g561"><path
               style="fill:#006bde"
               d="m 400.924,137.983 h -4.172 c -0.582,0 -1.053,-0.471 -1.053,-1.053 0,-0.582 0.472,-1.053 1.053,-1.053 h 4.172 c 0.581,0 1.053,0.471 1.053,1.053 0,0.582 -0.471,1.053 -1.053,1.053 z"
               id="path559" /></g><g
             id="g565"><path
               style="fill:#006bde"
               d="m 392.058,137.983 h -4.172 c -0.581,0 -1.053,-0.471 -1.053,-1.053 0,-0.582 0.472,-1.053 1.053,-1.053 h 4.172 c 0.582,0 1.053,0.471 1.053,1.053 0,0.582 -0.471,1.053 -1.053,1.053 z"
               id="path563" /></g></g></g></g><g
       id="g591"
       transform="matrix(2.032391,-1.1734015,1.1734015,2.032391,-717.04912,390.23171)"><g
         id="g579"><g
           id="g573"><path
             style="fill:#1c31b5"
             d="m 358.943,108.107 c -0.582,0 -1.053,-0.472 -1.053,-1.053 v -4.644 c 0,-0.582 0.472,-1.053 1.053,-1.053 0.581,0 1.053,0.471 1.053,1.053 v 4.644 c 0,0.581 -0.471,1.053 -1.053,1.053 z"
             id="path571" /></g><g
           id="g577"><path
             style="fill:#1c31b5"
             d="m 358.943,116.234 c -0.582,0 -1.053,-0.471 -1.053,-1.053 v -4.644 c 0,-0.582 0.472,-1.053 1.053,-1.053 0.581,0 1.053,0.471 1.053,1.053 v 4.644 c 0,0.582 -0.471,1.053 -1.053,1.053 z"
             id="path575" /></g></g><g
         id="g589"><g
           id="g583"><path
             style="fill:#1c31b5"
             d="m 365.462,109.849 h -4.172 c -0.581,0 -1.053,-0.472 -1.053,-1.053 0,-0.582 0.472,-1.053 1.053,-1.053 h 4.172 c 0.582,0 1.053,0.471 1.053,1.053 0,0.581 -0.471,1.053 -1.053,1.053 z"
             id="path581" /></g><g
           id="g587"><path
             style="fill:#1c31b5"
             d="m 356.596,109.849 h -4.172 c -0.582,0 -1.053,-0.472 -1.053,-1.053 0,-0.582 0.472,-1.053 1.053,-1.053 h 4.172 c 0.582,0 1.053,0.471 1.053,1.053 10e-4,0.581 -0.471,1.053 -1.053,1.053 z"
             id="path585" /></g></g></g><path
       style="fill:#006bde;stroke-width:3.72895"
       d="m 254.05744,215.90424 c -13.80455,0 -25.03613,-11.23158 -25.03613,-25.03613 0,-13.80455 11.23158,-25.03613 25.03613,-25.03613 13.80455,0 25.03613,11.23158 25.03613,25.03613 0,13.80455 -11.23158,25.03613 -25.03613,25.03613 z m 0,-42.21537 c -9.47525,0 -17.18297,7.70772 -17.18297,17.18297 0,9.47525 7.70772,17.17925 17.18297,17.17925 9.47525,0 17.17925,-7.70773 17.17925,-17.17925 0.004,-9.47525 -7.704,-17.18297 -17.17925,-17.18297 z"
       id="path541" /><g
       id="g444"
       transform="matrix(1.7827681,0,0,1.7827681,-221.20384,-124.98473)"><g
         id="g442"
         transform="rotate(-30,395.44328,150.62784)"><g
           id="g430"
           transform="translate(8.3343506,4.6753674)"><g
             id="g424"><path
               style="fill:#006bde"
               d="m 394.405,136.242 c -0.581,0 -1.053,-0.471 -1.053,-1.053 v -4.644 c 0,-0.582 0.472,-1.053 1.053,-1.053 0.582,0 1.053,0.471 1.053,1.053 v 4.644 c 0,0.581 -0.471,1.053 -1.053,1.053 z"
               id="path422" /></g><g
             id="g428"><path
               style="fill:#006bde"
               d="m 394.405,144.369 c -0.581,0 -1.053,-0.471 -1.053,-1.053 v -4.644 c 0,-0.582 0.472,-1.053 1.053,-1.053 0.582,0 1.053,0.471 1.053,1.053 v 4.644 c 0,0.582 -0.471,1.053 -1.053,1.053 z"
               id="path426" /></g></g><g
           id="g440"
           transform="translate(8.3343506,4.6753674)"><g
             id="g434"><path
               style="fill:#006bde"
               d="m 400.924,137.983 h -4.172 c -0.582,0 -1.053,-0.471 -1.053,-1.053 0,-0.582 0.472,-1.053 1.053,-1.053 h 4.172 c 0.581,0 1.053,0.471 1.053,1.053 0,0.582 -0.471,1.053 -1.053,1.053 z"
               id="path432" /></g><g
             id="g438"><path
               style="fill:#006bde"
               d="m 392.058,137.983 h -4.172 c -0.581,0 -1.053,-0.471 -1.053,-1.053 0,-0.582 0.472,-1.053 1.053,-1.053 h 4.172 c 0.582,0 1.053,0.471 1.053,1.053 0,0.582 -0.471,1.053 -1.053,1.053 z"
               id="path436" /></g></g></g></g><path
       style="opacity:0.353086;fill:#009cf8;stroke-width:8.59819"
       d="m 413.15191,63.633157 c -31.83053,0 -57.72828,-25.89778 -57.72828,-57.7283096 0,-31.8305304 25.89775,-57.7282804 57.72828,-57.7282804 31.83053,0 57.72828,25.89775 57.72828,57.7282804 0,31.8305296 -25.89775,57.7283096 -57.72828,57.7283096 z m 0,-97.34019 c -21.84803,0 -39.6205,17.77247 -39.6205,39.6204804 0,21.8480196 17.77247,39.6204996 39.6205,39.6204996 21.83941,0 39.61189,-17.77248 39.61189,-39.6204996 0.009,-21.8566004 -17.76386,-39.6204804 -39.61189,-39.6204804 z"
       id="path446" /><g
       id="g387"
       transform="matrix(2.032391,-1.1734015,1.1734015,2.032391,-472.50435,468.54514)"><g
         id="g375"><g
           id="g369"><path
             style="fill:#1c31b5"
             d="m 358.943,108.107 c -0.582,0 -1.053,-0.472 -1.053,-1.053 v -4.644 c 0,-0.582 0.472,-1.053 1.053,-1.053 0.581,0 1.053,0.471 1.053,1.053 v 4.644 c 0,0.581 -0.471,1.053 -1.053,1.053 z"
             id="path367" /></g><g
           id="g373"><path
             style="fill:#1c31b5"
             d="m 358.943,116.234 c -0.582,0 -1.053,-0.471 -1.053,-1.053 v -4.644 c 0,-0.582 0.472,-1.053 1.053,-1.053 0.581,0 1.053,0.471 1.053,1.053 v 4.644 c 0,0.582 -0.471,1.053 -1.053,1.053 z"
             id="path371" /></g></g><g
         id="g385"><g
           id="g379"><path
             style="fill:#1c31b5"
             d="m 365.462,109.849 h -4.172 c -0.581,0 -1.053,-0.472 -1.053,-1.053 0,-0.582 0.472,-1.053 1.053,-1.053 h 4.172 c 0.582,0 1.053,0.471 1.053,1.053 0,0.581 -0.471,1.053 -1.053,1.053 z"
             id="path377" /></g><g
           id="g383"><path
             style="fill:#1c31b5"
             d="m 356.596,109.849 h -4.172 c -0.582,0 -1.053,-0.472 -1.053,-1.053 0,-0.582 0.472,-1.053 1.053,-1.053 h 4.172 c 0.582,0 1.053,0.471 1.053,1.053 10e-4,0.581 -0.471,1.053 -1.053,1.053 z"
             id="path381" /></g></g></g><path
       style="fill:#009cf8;stroke-width:2.16088"
       d="m 44.857147,277.14807 c -7.999575,0 -14.508142,-6.50857 -14.508142,-14.50815 0,-7.99957 6.508567,-14.50814 14.508142,-14.50814 7.999575,0 14.508142,6.50857 14.508142,14.50814 0,7.99958 -6.508567,14.50815 -14.508142,14.50815 z m 0,-24.46332 c -5.490795,0 -9.957332,4.46654 -9.957332,9.95733 0,5.4908 4.466537,9.95734 9.957332,9.95734 5.488632,0 9.955169,-4.46654 9.955169,-9.95734 0.0021,-5.49295 -4.464374,-9.95733 -9.955169,-9.95733 z"
       id="path389" /><g
       id="g521"
       transform="matrix(1.8388807,0,0,1.8388807,-711.04239,-239.55117)"><g
         id="g519"
         transform="rotate(-30,395.44328,150.62784)"><g
           id="g507"
           transform="translate(8.3343506,4.6753674)"><g
             id="g501"><path
               style="fill:#006bde"
               d="m 394.405,136.242 c -0.581,0 -1.053,-0.471 -1.053,-1.053 v -4.644 c 0,-0.582 0.472,-1.053 1.053,-1.053 0.582,0 1.053,0.471 1.053,1.053 v 4.644 c 0,0.581 -0.471,1.053 -1.053,1.053 z"
               id="path499" /></g><g
             id="g505"><path
               style="fill:#006bde"
               d="m 394.405,144.369 c -0.581,0 -1.053,-0.471 -1.053,-1.053 v -4.644 c 0,-0.582 0.472,-1.053 1.053,-1.053 0.582,0 1.053,0.471 1.053,1.053 v 4.644 c 0,0.582 -0.471,1.053 -1.053,1.053 z"
               id="path503" /></g></g><g
           id="g517"
           transform="translate(8.3343506,4.6753674)"><g
             id="g511"><path
               style="fill:#006bde"
               d="m 400.924,137.983 h -4.172 c -0.582,0 -1.053,-0.471 -1.053,-1.053 0,-0.582 0.472,-1.053 1.053,-1.053 h 4.172 c 0.581,0 1.053,0.471 1.053,1.053 0,0.582 -0.471,1.053 -1.053,1.053 z"
               id="path509" /></g><g
             id="g515"><path
               style="fill:#006bde"
               d="m 392.058,137.983 h -4.172 c -0.581,0 -1.053,-0.471 -1.053,-1.053 0,-0.582 0.472,-1.053 1.053,-1.053 h 4.172 c 0.582,0 1.053,0.471 1.053,1.053 0,0.582 -0.471,1.053 -1.053,1.053 z"
               id="path513" /></g></g></g></g></g></svg>
